<svg xmlns="http://www.w3.org/2000/svg" width="128" height="28" viewBox="0 0 128 28">
  <path fill="#FFF" fill-rule="evenodd" d="M96.0747 10.253L96.0747 20.745 97.9077 20.745 97.9077 22.593 96.0937 22.593 96.0937 27.407 93.8637 27.407 93.8637 22.611 86.8197 22.611 86.8197 20.543 92.9517 10.253 96.0747 10.253zM93.8987 20.761L93.9657 12.234C93.8087 12.743 93.8017 12.672 93.5567 13.18 93.3307 13.601 93.1177 13.862 92.8897 14.301 92.5407 14.933 90.5597 18.405 90.1917 19.037 89.8937 19.545 89.5187 20.163 89.1497 20.761L93.8987 20.761zM109.8753 20.8195L109.8753 22.6245 100.7453 22.6245 100.7623 20.7395C101.1353 20.3475 103.8033 18.6345 105.1743 17.4645 106.4693 16.3645 107.5293 15.4145 107.4753 14.2065 107.4223 13.0425 106.6613 12.0495 105.2713 11.9055 104.4153 11.8185 102.8763 12.2995 101.8053 13.2315L100.3293 11.9965C100.7863 11.5665 101.3173 11.2365 101.7233 10.9495 102.5303 10.3875 103.8843 9.9565 105.2143 9.9565 107.3703 9.9755 109.4543 11.2465 109.6163 13.9585 109.6883 15.1825 109.2953 16.5565 107.9533 17.7045 106.4383 19.0035 104.7433 20.4375 104.0243 20.8345L109.8753 20.8195zM114.9535 7.4738C114.9535 3.8838 117.8645.9758 121.4505.9758 125.0355.9758 127.9445 3.8838 127.9445 7.4738 127.9445 11.0608 125.0355 13.9678 121.4505 13.9678 117.8645 13.9678 114.9535 11.0608 114.9535 7.4738zM123.1406 4.0645C123.3996 3.9555 123.7836 3.8495 123.7746 3.8445 123.2006 3.6735 122.3376 2.2155 121.8096 2.21849538 122.2946 2.9705 122.3236 3.2455 122.5296 3.7485 122.6236 3.9875 122.9266 4.1515 123.1406 4.0645zM118.9255 4.35409116C117.9555 4.3511 117.5705 5.1121 117.4655 5.8731 117.1685 7.9661 117.6775 9.3981 118.4475 11.2981 119.0525 10.2911 119.3805 9.6771 119.7725 8.6071 120.0155 7.9411 120.3265 6.8271 120.2835 5.8621 120.2565 5.1761 119.7815 4.3561 118.9255 4.35409116zM123.7083 5.3085C122.8513 5.2905 122.3613 6.2345 122.3223 6.8145 122.2533 7.8735 122.5243 9.0165 122.8213 9.8395 123.2333 10.9715 123.8683 11.9245 124.6863 12.7045 124.9763 10.4595 125.2563 8.0915 125.2563 7.1065 125.2563 6.4845 124.8773 5.3265 123.7083 5.3085zM120.6407 1.2213C120.8517 4.3853 120.7867 5.6993 120.7867 6.6413L120.7867 13.5203C120.7867 13.5203 121.1917 13.5903 121.9707 13.5293 121.8257 12.3983 121.7957 11.6303 121.7957 10.3843L121.7957 7.2083C121.7957 6.0873 121.8677 4.4403 121.6937 3.4363 121.5037 2.3443 121.1617 1.8663 120.6407 1.2213zM3.4403 11.5145C3.7723 11.0755 4.0533 10.8765 4.3773 10.6365 5.3373 9.9205 6.9573 9.8915 7.3403 9.8915 7.8513 9.8915 9.7633 9.9685 10.8843 11.3465 11.8033 12.5165 11.8543 13.8685 11.8793 15.2965L11.8793 22.6655 9.5823 22.6655 9.5823 15.5765C9.5583 15.1435 9.5343 14.7095 9.4833 14.2495 9.3303 13.3325 9.0773 12.7505 8.4393 12.1735 7.8633 11.6525 7.1543 11.6495 6.8733 11.6495 5.8863 11.6495 4.6763 12.0505 3.9363 13.3255 3.5033 14.0905 3.4923 14.7365 3.4143 16.5715L3.4143 22.6655.9933 22.6655.9933 5.3115 3.4143 5.3115 3.4403 11.5145zM47.9519 20.3447C48.3099 19.1727 48.6689 18.0247 49.0739 16.9017 49.4569 15.8827 49.8919 14.8637 50.2499 13.8447 50.7069 12.6187 51.1399 11.4217 51.5489 10.1977L53.9709 10.1977 49.1769 22.6657 46.5509 22.6657 41.8849 10.1977 44.4349 10.1977 47.9519 20.3447zM72.2041 11.3967C73.1571 10.5177 74.4731 9.9437 76.1301 9.9437 77.7111 9.9437 79.3941 10.8107 79.9801 12.3397 80.2351 13.0267 80.2601 13.7147 80.3111 14.5057L80.3111 22.6657 78.0191 22.6657 78.0191 15.2457C77.9151 14.0977 77.7861 12.9517 76.8691 12.2117 76.6411 12.0317 76.1661 11.8247 75.4261 11.8247 75.1211 11.8247 74.3291 11.9267 73.6641 12.4377 72.4421 13.3307 72.4081 14.5057 72.3571 16.0107L72.3571 22.6397 69.9861 22.6397 69.9861 15.7807 69.8581 10.2227 72.2041 10.2227 72.2041 11.3967zM39.5857 19.6558L39.5857 14.6078C39.5857 13.7418 39.5607 12.9008 39.2547 12.1098 38.5667 10.3748 37.2127 10.1948 36.3947 10.0198 32.5107 9.3698 29.9987 10.5618 29.9987 10.5618L29.9987 12.4248C29.9987 12.4248 33.4817 10.8158 36.2207 11.9608 37.2557 12.3928 37.3667 13.6138 37.3147 14.8878 34.2307 14.7888 32.6497 14.8378 31.3507 15.5768 30.0247 16.3158 29.2077 17.5898 29.2077 19.1208 29.2077 19.9358 29.5407 21.9518 31.7067 22.7168 32.4717 22.9958 33.2347 23.0218 33.5177 23.0218 35.1987 23.0218 36.4467 22.5488 37.5657 21.2978L37.5707 22.6398 39.5887 22.6778C39.5887 21.3848 39.6087 20.9818 39.5857 19.6558M37.3147 18.1268C37.3147 18.6108 37.2407 18.8658 37.1617 19.0968 36.8057 20.0398 35.8867 20.7538 34.9707 21.0328 34.6137 21.1108 34.2367 21.2318 33.8547 21.2468 32.4117 21.3038 31.2687 20.6168 31.2687 19.1898 31.2687 17.9388 32.1197 17.1878 33.1927 16.8058 34.0587 16.4988 35.2137 16.5418 35.5447 16.5418 36.1297 16.5418 36.7897 16.5208 37.3747 16.5698 37.4027 17.1578 37.3427 17.5668 37.3147 18.1268M19.7137 20.8917C19.6937 20.8857 19.1377 20.6667 18.8877 20.4857 17.6657 19.5937 17.4897 18.6787 17.4137 18.1437 17.3617 17.8377 17.3397 17.3617 17.3137 17.0317L26.1367 17.0317C26.1367 15.9847 26.1367 14.8877 25.8817 13.8957 25.6767 13.1037 24.9377 11.0377 22.7457 10.1977 22.3877 10.0707 21.6757 9.8397 20.7307 9.8397 19.0987 9.8397 17.4417 10.4777 16.4207 11.7277 15.8097 12.4677 14.9167 14.0217 14.9167 16.4187 14.9167 18.4837 15.4787 20.5237 17.1357 21.7977 17.9647 22.4497 18.8397 22.7257 19.6637 22.8487L19.6637 22.8517C23.4747 23.4547 25.9357 22.2937 25.9357 22.2937L25.9357 20.4297C25.9357 20.4297 22.5777 21.9107 19.7137 20.8917M19.0237 12.0837C19.7107 11.6497 20.2967 11.6257 20.6287 11.6257 21.0857 11.6257 21.7227 11.6557 22.3517 11.9687 23.5637 12.5767 23.8167 13.6747 23.9837 14.3017 24.0447 14.7097 24.1087 15.0017 24.0927 15.2197L17.1747 15.2457C17.2887 14.0997 17.8237 12.8237 19.0237 12.0837M60.3153 20.8917C60.2973 20.8857 59.7413 20.6667 59.4923 20.4857 58.2673 19.5937 58.0943 18.6787 58.0153 18.1437 57.9643 17.8377 57.9423 17.3617 57.9163 17.0317L66.7383 17.0317C66.7383 15.9847 66.7383 14.8877 66.4843 13.8957 66.2793 13.1037 65.5413 11.0377 63.3483 10.1977 62.9923 10.0707 62.2753 9.8397 61.3313 9.8397 59.7023 9.8397 58.0443 10.4777 57.0233 11.7277 56.4123 12.4677 55.5203 14.0217 55.5203 16.4187 55.5203 18.4837 56.0813 20.5237 57.7373 21.7977 58.5693 22.4497 59.4433 22.7257 60.2663 22.8487L60.2663 22.8517C64.0763 23.4547 66.5383 22.2937 66.5383 22.2937L66.5383 20.4297C66.5383 20.4297 63.1803 21.9107 60.3153 20.8917M59.6253 12.0837C60.3123 11.6497 60.8993 11.6257 61.2323 11.6257 61.6903 11.6257 62.3233 11.6557 62.9513 11.9687 64.1673 12.5767 64.4203 13.6747 64.5853 14.3017 64.6473 14.7097 64.7103 15.0017 64.6963 15.2197L57.7763 15.2457C57.8933 14.0997 58.4273 12.8237 59.6253 12.0837"/>
</svg>
